<svg width="103" height="49" viewBox="0 0 103 49" fill="none" xmlns="http://www.w3.org/2000/svg">
<g clip-path="url(#clip0_4302_16)">
<path d="M78.9681 0.570068H24.5142C11.4092 0.570068 0.7854 11.1956 0.7854 24.3029C0.7854 37.4101 11.4092 48.0357 24.5142 48.0357H78.9681C92.0731 48.0357 102.697 37.4101 102.697 24.3029C102.697 11.1956 92.0731 0.570068 78.9681 0.570068Z" fill="#FFFB00"/>
<path d="M78.5228 4.85913C67.7846 4.85913 59.0818 13.5644 59.0818 24.3056C59.0818 35.0467 67.7846 43.752 78.5228 43.752C89.2609 43.752 97.9638 35.0467 97.9638 24.3056C97.9638 13.5644 89.2609 4.85913 78.5228 4.85913Z" fill="black"/>
<path d="M68.3093 24.3055H88.7414" stroke="white" stroke-width="4.59" stroke-miterlimit="10"/>
<path d="M81.3901 17.2332L88.7415 24.3055L81.3901 31.3726" stroke="white" stroke-width="4.59" stroke-linejoin="bevel"/>
</g>
<defs>
<clipPath id="clip0_4302_16">
<rect width="101.911" height="47.4656" fill="white" transform="translate(0.7854 0.570068)"/>
</clipPath>
</defs>
</svg>
